Music video by Havana Brown feat. Pitbull performing We Run The Night. (C) 2012 Universal Music Australia / Universal Republic Records / 2101 Records.

Lets spend the night, Havana Brown style.

Cover:
  
http://www.shotpix.com/images/89204501912899711897.jpg


                          1080p Full HD MP4 Video
                                     +
                           96 kbps/VBR M4A Audio

Sing along,
English subtitles included.
					
Details:

Video
Format/Info                    : Advanced Video Codec
Duration                       : 3mn 57s
Bit rate mode                  : Variable
Bit rate                       : 1 284 Kbps
Width                          : 1 920 pixels
Height                         : 1 080 pixels
Display aspect ratio           : 16:9
Frame rate mode                : Variable
Frame rate                     : 23.976 fps
Stream size                    : 36.6 MiB (91%)
Writing library                : x264 core 125

Audio
ID                             : 2
Format/Info                    : Advanced Audio Codec
Format profile                 : LC
Duration                       : 3mn 57s
Bit rate mode                  : Variable
Bit rate                       : 123 Kbps
Maximum bit rate               : 261 Kbps
Channel(s)                     : 2 channels
Channel positions              : Front: L R
Sampling rate                  : 48.0 KHz
Stream size                    : 3.49 MiB (9%)

Subtitles                      : Yes (English)




Screens:

 
http://www.shotpix.com/images/85658925607637729133.jpg
 
http://www.shotpix.com/images/55601522727339846925.jpg



Thumbs:
 
http://www.shotpix.com/images/74997778236849621067.jpg


------------------------------------------------------------------------


Notes:

* Best played on VLC Media Player.
* Install shark007 codecs in case of any kind of problem in playback (For non-VLC Media Player users).
* Alternatively, install Core AVC codecs, the fastest decoder that there is coupled with Community Center Codec Pack and play on Windows Media Player Classic.
* Read NFO
* Help in seeding this torrent as much as you can. 


Encoder Notes: Looking For Early Access To Anything You Can Provide DVDScr, R5, DVDRips, BluRay, Direct Audio, Early Music
Releases, Seedboxes, Links, Dedicated Servers anything u can provide, Advance / Promo CDs/DVDs. If You Got anything to
offer contact me at "contact@tinym.eu"

                                     Enjoy!